<?xml version="1.0" standalone="no"?>
<!DOCTYPE svg PUBLIC "-//W3C//DTD SVG 20010904//EN"
 "http://www.w3.org/TR/2001/REC-SVG-20010904/DTD/svg10.dtd">
<svg version="1.0" xmlns="http://www.w3.org/2000/svg"
 width="1280.000000pt" height="640.000000pt" viewBox="0 0 1280.000000 640.000000"
 preserveAspectRatio="xMidYMid meet">
<metadata>
Created by potrace 1.15, written by Peter Selinger 2001-2017
</metadata>
<g transform="translate(0.000000,640.000000) scale(0.100000,-0.100000)"
fill="#03a9f4" stroke="none">
<path d="M4000 5999 c-658 -24 -1266 -111 -1739 -248 -615 -179 -1041 -420
-1431 -811 -440 -440 -709 -945 -795 -1491 -16 -105 -35 -455 -35 -664 0 -139
16 -275 50 -420 27 -117 102 -357 109 -349 3 3 11 19 16 36 10 27 13 19 29
-83 22 -139 57 -261 96 -339 87 -173 189 -208 571 -197 224 6 258 14 312 65
37 35 62 84 76 150 19 90 9 95 -29 15 -31 -67 -66 -109 -105 -127 -34 -17
-182 -22 -257 -10 l-36 6 28 40 c39 53 85 198 109 338 72 424 35 856 -92 1080
-39 69 -121 150 -172 171 -95 39 -95 39 -15 36 52 -3 88 -11 118 -26 161 -83
301 -330 412 -734 36 -128 38 -92 4 56 -67 294 -190 553 -316 662 -74 65 -141
90 -233 89 -96 -1 -172 -28 -271 -99 -188 -134 -248 -342 -244 -845 1 -91 1
-187 0 -215 l-2 -50 -14 50 c-8 28 -24 102 -35 165 -39 215 -35 883 7 1170 77
526 358 1041 805 1475 258 251 551 444 891 589 134 58 151 59 33 2 -222 -106
-488 -309 -731 -557 -231 -237 -305 -375 -263 -486 13 -36 47 -73 79 -85 50
-19 1051 -135 1570 -182 284 -26 592 -49 880 -66 308 -18 1061 -33 1272 -25
l207 7 7 30 c11 53 -7 180 -38 265 -41 114 -169 371 -273 548 -154 262 -427
666 -441 652 -3 -3 27 -60 67 -128 251 -433 401 -714 482 -899 53 -123 147
-383 147 -410 0 -11 -64 -12 -367 -7 -666 12 -1249 53 -2051 142 -564 64
-1402 174 -1420 188 -96 74 321 536 738 816 242 163 484 252 927 341 235 48
413 68 808 90 99 5 209 13 245 17 l65 7 -45 7 c-67 12 -636 11 -780 -1 -138
-11 -375 -49 -544 -86 -60 -13 -111 -22 -113 -20 -4 4 249 66 382 95 256 55
619 102 1015 133 256 20 1182 17 1485 -5 895 -65 1645 -178 2214 -333 199 -54
304 -94 479 -185 273 -141 448 -270 1022 -759 258 -220 507 -402 685 -500 42
-23 126 -58 188 -76 128 -40 503 -133 777 -194 820 -182 1246 -342 1595 -600
210 -155 234 -189 275 -395 41 -207 93 -282 210 -300 92 -14 84 12 77 -244 -4
-124 -10 -238 -13 -253 -5 -24 -8 -25 -21 -13 -8 8 -20 15 -26 15 -32 0 -191
-30 -197 -37 -7 -8 -31 -178 -54 -381 l-12 -114 25 -10 c48 -19 117 -21 150
-5 l31 15 -6 -26 c-14 -59 -75 -171 -111 -202 -53 -47 -149 -89 -240 -106
-111 -20 -5052 -208 -5090 -193 -43 16 -80 56 -144 151 -124 189 -177 348
-229 693 -79 525 -129 685 -281 900 -89 126 -304 338 -396 392 -197 115 -375
117 -543 6 -213 -141 -408 -493 -529 -955 -35 -132 -39 -167 -10 -93 10 28 17
39 15 25 -28 -154 -37 -508 -17 -675 56 -457 206 -787 413 -909 156 -91 422
-120 1038 -110 405 6 475 15 583 71 114 60 219 195 233 299 5 39 5 38 -32 -26
-80 -138 -208 -230 -346 -249 -79 -11 -886 12 -1043 29 -135 15 -266 45 -331
74 -164 75 -288 317 -355 692 -21 113 -24 161 -24 394 0 231 3 281 22 385 32
171 67 285 123 401 140 290 347 406 617 350 321 -68 529 -362 609 -862 24
-150 29 -488 11 -665 -37 -340 -113 -592 -213 -696 -45 -47 -82 -55 -122 -27
-36 25 -37 10 -2 -20 122 -102 279 89 374 454 106 404 112 876 16 1238 -102
381 -319 630 -620 709 -100 26 -285 24 -375 -4 -84 -26 -170 -80 -242 -151
-29 -28 -53 -48 -53 -45 0 19 119 172 185 238 107 107 186 147 301 153 135 7
233 -32 380 -150 114 -92 281 -295 355 -432 81 -151 113 -275 170 -656 65
-445 99 -567 210 -761 72 -125 133 -199 196 -236 l45 -26 264 6 c145 4 528 16
851 27 323 11 867 29 1208 40 341 11 751 24 910 30 160 5 576 19 925 30 861
27 969 33 1050 60 120 40 196 90 259 170 112 142 211 586 228 1025 11 302 -4
345 -135 369 -40 8 -82 22 -92 31 -24 22 -43 80 -74 227 -33 157 -53 197 -136
279 -322 317 -836 545 -1642 729 -98 22 -258 58 -355 80 -231 53 -474 115
-592 151 -184 57 -454 238 -831 559 -612 520 -773 637 -1085 791 -221 108
-377 159 -735 239 -695 154 -1523 252 -2380 280 -317 11 -439 10 -740 -1z
m-3357 -2963 c100 -43 181 -204 222 -444 48 -279 33 -741 -30 -956 -20 -65
-41 -89 -67 -75 -18 10 -19 8 -13 -11 7 -22 6 -22 -61 -15 -202 20 -252 53
-299 194 -58 170 -80 368 -72 640 8 262 37 419 103 552 43 86 91 129 145 129
22 0 54 -6 72 -14z m11958 -1186 c-54 -205 -64 -224 -143 -273 -34 -21 -33
-37 -8 183 11 96 20 178 20 181 0 4 30 14 68 23 37 10 74 21 82 26 8 5 15 8
16 7 1 -1 -15 -67 -35 -147z"/>
<path d="M5030 5714 c-206 -7 -455 -17 -553 -21 l-177 -8 65 -95 c105 -152
189 -298 324 -560 218 -428 298 -599 376 -808 17 -45 32 -72 39 -69 32 12 187
38 336 56 306 38 447 45 895 45 594 0 860 -14 2330 -119 539 -39 773 -51 763
-41 -28 31 -1210 167 -1953 225 -777 62 -1526 71 -1922 26 -140 -17 -271 -49
-362 -91 -62 -28 -71 -29 -71 -9 0 25 -115 363 -165 484 -128 313 -292 570
-542 856 l-77 87 75 -5 c119 -9 1349 -29 1404 -23 74 8 673 -12 875 -29 178
-15 267 -19 259 -10 -3 2 -61 15 -129 29 -142 29 -388 60 -600 76 -230 18
-782 20 -1190 4z"/>
<path d="M5294 4161 c3 -5 16 -11 28 -14 126 -30 782 -196 900 -228 712 -192
1227 -395 1555 -612 68 -44 122 -82 120 -83 -1 -2 -126 -24 -277 -49 -151 -26
-276 -48 -277 -49 -1 -1 -20 -100 -43 -221 -23 -121 -44 -230 -46 -242 -7 -27
-49 -20 521 -83 l460 -50 672 10 c636 9 674 10 710 29 80 41 133 127 132 213
l0 53 -13 -40 c-25 -80 -60 -127 -128 -170 -26 -16 -50 -16 -360 -5 -183 6
-487 14 -675 18 -188 4 -344 10 -347 13 -3 3 -12 57 -21 121 -15 117 -53 265
-81 320 -8 16 -14 31 -12 33 5 4 388 -13 548 -25 567 -42 917 -119 1043 -229
42 -37 46 -33 16 15 -108 175 -701 309 -1549 350 l-145 7 -75 64 c-356 307
-1057 587 -1905 763 -348 72 -771 123 -751 91z m2771 -1138 c36 -72 137 -364
129 -372 -6 -6 -863 34 -870 42 -6 6 71 319 86 348 7 12 70 22 292 48 156 19
285 35 287 37 10 9 42 -34 76 -103z"/>
<path d="M276 3801 c16 -16 328 -52 789 -90 347 -29 473 -39 1550 -116 1814
-130 2775 -222 3805 -366 536 -75 792 -109 812 -109 74 0 -87 45 -387 109
-390 82 -1049 188 -1555 250 -447 55 -677 79 -1040 111 -129 11 -282 25 -340
30 -526 51 -1957 133 -3059 175 -449 18 -589 19 -575 6z"/>
<path d="M12138 3066 c-130 -54 -227 -137 -248 -216 -31 -116 54 -237 225
-317 54 -25 71 -28 160 -27 99 0 175 19 175 43 0 12 -7 14 -130 36 -97 18
-147 39 -228 99 -67 50 -98 100 -88 142 5 17 49 71 112 134 132 134 136 153
22 106z"/>
<path d="M10130 2890 c-244 -10 -358 -25 -337 -46 22 -23 475 -56 946 -69 214
-6 225 -7 242 -28 25 -30 24 -37 -10 -37 -20 0 -30 -6 -34 -20 -8 -30 49 -29
58 1 l7 21 22 -21 c22 -20 66 -29 66 -13 0 17 -25 32 -53 32 -26 0 -29 3 -23
23 3 12 6 25 6 28 0 3 127 9 283 13 387 10 557 24 557 46 0 9 -66 24 -150 34
-233 30 -1186 52 -1580 36z"/>
<path d="M9890 2776 c0 -14 169 -86 284 -121 405 -122 803 -146 1221 -74 143
24 355 83 425 117 l55 26 -42 4 c-23 2 -164 -11 -315 -29 -243 -29 -303 -33
-543 -33 -302 0 -421 11 -765 71 -215 37 -320 50 -320 39z"/>
<path d="M10286 2398 c-3 -29 -8 -104 -12 -165 l-7 -113 -236 0 c-137 0 -252
-5 -275 -11 -85 -24 -165 -136 -222 -309 -23 -72 -27 -102 -27 -200 -1 -136
21 -206 85 -276 62 -68 112 -87 221 -85 275 3 1636 73 2067 106 151 12 189 18
210 33 30 23 56 66 65 107 l6 30 -18 -25 c-10 -13 -31 -39 -47 -57 l-28 -33
-205 0 c-267 0 -1135 -18 -1673 -34 -457 -14 -462 -14 -507 35 -58 63 -74 207
-39 339 23 85 77 199 111 230 l27 25 239 3 238 3 -6 -80 -6 -81 860 0 861 0 6
23 c3 12 6 45 6 73 0 28 3 66 6 83 6 30 8 31 64 31 73 0 97 -18 136 -102 25
-56 28 -73 27 -153 -1 -63 -9 -117 -27 -180 -14 -49 -24 -91 -21 -93 7 -7 54
84 75 148 45 131 36 263 -24 362 -39 66 -79 89 -162 96 l-66 5 6 31 c3 17 8
88 12 159 l7 127 -860 0 -861 0 -6 -52z"/>
<path d="M8244 1877 c13 -189 37 -262 111 -345 95 -105 217 -142 470 -141 94
0 224 6 290 12 l120 12 8 135 c10 154 1 351 -17 375 -20 28 -119 35 -560 42
l-429 6 7 -96z m536 31 c173 -1 343 2 376 6 l62 8 -9 -44 c-5 -23 -12 -126
-15 -227 l-7 -184 -156 6 c-171 6 -381 36 -469 67 -31 11 -72 32 -90 48 -42
33 -103 137 -148 251 l-33 83 87 -6 c48 -4 229 -8 402 -8z"/>
<path d="M11246 948 c-7 -13 -26 -43 -41 -67 -39 -64 -112 -138 -165 -169 -43
-26 -52 -27 -215 -30 -251 -5 -756 15 -845 33 -109 22 -167 54 -246 137 -68
72 -69 73 -72 44 -5 -42 50 -146 104 -196 134 -124 379 -166 915 -158 254 4
278 6 330 26 148 58 250 193 266 350 6 57 -6 69 -31 30z"/>
</g>
</svg>
